<?xml version="1.0" standalone="no"?><!DOCTYPE svg PUBLIC "-//W3C//DTD SVG 1.1//EN" "http://www.w3.org/Graphics/SVG/1.1/DTD/svg11.dtd"><svg t="1783481900403" class="icon" viewBox="0 0 1024 1024" version="1.1" xmlns="http://www.w3.org/2000/svg" p-id="1763" xmlns:xlink="http://www.w3.org/1999/xlink" width="200" height="200"><path d="M879.957333 971.067733c-3.3024-18.875733 17.911467-27.093333 27.067734-39.936 38.152533-53.4784-13.7216-114.218667-54.161067-148.471466-6.7072-5.6832-19.8656-17.399467-27.409067-12.808534-22.468267 12.6464-44.945067 26.077867-68.5824 36.48-128.1024 56.388267-286.208 62.8224-420.3008 25.386667-50.432-14.08-98.116267-35.968-142.557866-63.300267-34.0992 27.178667-95.1296 80.110933-89.070934 128.349867 1.501867 11.946667 12.475733 31.8464 20.002134 41.540267 8.277333 10.6496 30.574933 21.341867 19.7632 36.3776-3.6864-0.5376-7.9104 0.8192-12.074667-0.520534-18.389333-5.905067-45.627733-48.494933-48.7936-67.182933-1.5616-9.207467-1.8176-26.222933-0.64-35.456 4.0192-31.419733 56.192-91.374933 81.3312-110.677333 2.807467-2.1504 5.384533-4.027733 9.156267-3.4816l-0.017067-5.4016c-45.056-33.6128-80.682667-80.4864-96.896-134.912-17.792-59.7248-14.549333-119.296-0.136533-179.447467 8.1408-33.988267 35.3536-88.081067 39.022933-116.7104 4.352-34.005333-2.304-76.612267 0.136533-112.145067 2.2528-32.810667 10.146133-78.967467 18.9184-111.470933 8.0896-29.994667 24.4736-73.489067 52.130134-89.122133 33.706667-19.063467 70.621867 0 101.623466 16.913066 25.301333 13.806933 52.608 33.570133 75.426134 51.345067 7.253333 5.649067 12.014933 15.0528 22.203733 17.672533l60.868267-10.5216c50.645333 1.664 102.382933-3.157333 152.200533 3.848534 10.897067 1.536 29.6704 9.6768 39.492267 6.749866 37.546667-31.505067 85.956267-71.714133 132.488533-88.439466 80.6912-29.021867 109.252267 58.769067 122.436267 120.482133 8.149333 38.152533 13.2864 80.3584 15.249066 118.7584 1.322667 25.984-3.328 58.922667 0.0768 83.2256 1.220267 8.704 10.4448 23.8592 13.713067 33.373867 48.9728 142.574933 64.2048 258.210133-51.8144 370.397866-6.741333 6.519467-13.073067 13.482667-19.822933 19.9936 44.526933 37.239467 110.4896 97.962667 89.7536 162.210134-5.248 16.264533-33.979733 60.629333-51.7632 60.5696-3.797333-0.008533-7.168-3.566933-9.0368-3.669334zM90.385067 565.4272c3.1232 22.929067 7.509333 43.665067 16.238933 65.245867 5.2224 12.893867 13.9264 30.72 23.594667 39.7824 0.725333 6.664533 6.621867 14.967467 10.794666 19.985066 58.154667 69.828267 167.6544 115.592533 255.5392 132.002134 171.1104 31.940267 421.085867-9.463467 512.366934-177.339734 10.9824-20.189867 20.488533-41.301333 21.7344-65.194666l7.389866-45.1072c-2.875733-38.7072-9.224533-77.056-19.968-114.3552-7.739733-26.888533-31.5136-73.028267-34.449066-95.940267-5.461333-42.658133 2.0224-91.793067-3.746134-137.506133-4.8128-38.126933-18.961067-116.411733-43.332266-144.9984-20.974933-24.6016-37.572267-22.314667-65.314134-10.8544-29.8496 12.330667-75.648 44.6208-101.205333 65.399466-7.176533 5.8368-20.0704 23.133867-27.3408 23.637334l-54.3744-11.042134c-62.08-6.946133-122.641067-4.3008-184.576 3.6096-9.1648 1.169067-17.28 6.442667-28.5952 3.106134-26.530133-20.488533-52.130133-42.9056-80.6912-60.552534-18.056533-11.1616-59.076267-34.244267-79.172267-33.3824-34.594133 1.476267-51.3536 57.7536-58.8288 86.212267-9.617067 36.625067-17.041067 91.895467-19.1488 129.348267-1.604267 28.586667 3.6608 63.3088 0.093867 90.641066-2.8416 21.768533-21.1968 57.514667-28.168533 80.4864-15.6672 51.601067-26.1376 103.381333-18.850134 156.808534z" fill="#512E24" p-id="1764"></path><path d="M879.957333 971.067733c-3.0464-0.162133-51.7632 15.752533-57.949866 18.107734 0.981333-33.245867-0.110933-66.3808-8.081067-98.7648-4.4288-18.005333-10.692267-36.5312-27.835733-14.890667 12.3392 38.459733 16.298667 76.945067 14.190933 117.2736-28.194133 6.382933-56.840533 13.738667-86.920533 18.107733 13.329067-44.731733 12.8-113.348267-29.073067-142.967466-7.8336-5.546667-28.612267-13.073067-37.9392-13.073067-10.2912 0-35.003733 5.649067-46.199467 8.4224-29.508267 7.304533-58.496 22.3488-87.867733 30.702933-31.829333-12.296533-63.914667-28.8768-97.809067-35.131733-7.842133-1.450667-29.038933-4.343467-36.2752-3.8656-33.954133 2.261333-56.029867 26.129067-66.0992 57.070933-8.004267 24.6016-9.096533 50.244267-4.343466 75.2384 1.536 8.081067 6.434133 15.300267 7.1936 23.594667-30.8736-4.360533-58.24-11.886933-86.920534-18.107733l0.0768-52.445867c1.732267-18.082133 9.9072-40.789333 10.965334-57.890133 0.315733-5.0944 0.1024-14.865067-5.614934-16.418134-12.305067-3.3536-17.032533 16.264533-19.1488 24.2944-2.568533 9.745067-6.9632 29.653333-7.927466 39.159467-1.339733 13.2352-2.1248 47.453867-0.085334 59.682133-20.744533-4.7872-40.695467-11.434667-61.568-14.4896 10.811733-15.035733-11.485867-25.728-19.7632-36.3776-7.534933-9.693867-18.5088-29.5936-20.002133-41.540266-6.058667-48.238933 54.971733-101.1712 89.070933-128.349867 44.450133 27.332267 92.1344 49.220267 142.557867 63.300267 134.0928 37.435733 292.1984 31.0016 420.3008-25.386667 23.637333-10.402133 46.114133-23.8336 68.5824-36.48 7.543467-4.599467 20.701867 7.125333 27.409067 12.808533 40.448 34.261333 92.3136 94.993067 54.161066 148.471467-9.156267 12.842667-30.370133 21.051733-27.067733 39.936z" fill="#F6C17F" p-id="1765"></path><path d="M713.344 1010.909867c-121.941333 17.723733-276.744533 17.169067-398.404267 0-0.759467-8.2944-5.6576-15.505067-7.1936-23.594667-4.7616-24.994133-3.669333-50.645333 4.343467-75.2384 10.069333-30.941867 32.145067-54.8096 66.0992-57.070933 7.236267-0.477867 28.433067 2.414933 36.2752 3.8656 33.8944 6.254933 65.979733 22.826667 97.809067 35.131733 29.371733-8.354133 58.350933-23.3984 87.867733-30.702933 11.195733-2.773333 35.908267-8.4224 46.199467-8.4224 9.326933 0 30.1056 7.5264 37.9392 13.073066 41.873067 29.627733 42.402133 98.235733 29.073066 142.967467z" fill="#F9EFDC" p-id="1766"></path><path d="M822.007467 989.184c-2.4832 0.9472-4.898133 2.3552-7.2448 3.618133-3.541333 0.3072-7.415467-0.4608-10.862934 0-1.2288 0.162133-2.5344-0.247467-3.618133 0 2.116267-40.337067-1.851733-78.813867-14.190933-117.2736 17.143467-21.640533 23.3984-3.114667 27.835733 14.890667 7.970133 32.384 9.070933 65.518933 8.081067 98.7648z" fill="#583326" p-id="1767"></path><path d="M228.0192 992.802133c-1.134933-0.247467-2.432 0.196267-3.618133 0-4.3776-0.733867-9.847467 0.494933-14.4896 0-0.955733-0.776533-2.978133 0.238933-3.618134-3.618133-2.039467-12.228267-1.262933-46.446933 0.085334-59.682133 0.964267-9.506133 5.358933-29.405867 7.927466-39.159467 2.116267-8.0384 6.8352-27.656533 19.1488-24.2944 5.717333 1.5616 5.930667 11.323733 5.614934 16.418133-1.058133 17.1008-9.233067 39.808-10.965334 57.890134l-0.0768 52.445866z" fill="#553125" p-id="1768"></path><path d="M224.401067 992.802133l-2.423467 3.0976c-7.586133 3.012267-8.669867-0.349867-12.0576-3.0976 4.642133 0.494933 10.112-0.733867 14.4896 0zM814.762667 992.802133c-2.747733 1.4848-5.870933 8.5248-10.862934 0 3.447467-0.4608 7.330133 0.3072 10.862934 0z" fill="#F6C17F" p-id="1769"></path><path d="M930.6624 579.908267c2.0224-38.8352-25.088-76.168533-65.194667-79.684267l-34.56-3.780267c-38.109867 2.2784-69.504 24.226133-103.0656 36.3776-8.772267 3.1744-33.066667 9.9072-39.842133 10.862934-23.9104 3.370667-55.953067-6.775467-75.972267-20.010667-13.047467-8.635733-25.745067-24.0384-40.968533-31.470933-43.400533-21.179733-100.718933-18.1504-140.1344 9.915733-23.790933 16.938667-29.448533 29.405867-61.661867 37.9392-14.3872-0.6144-29.1072 0.861867-43.460266 0-7.825067-0.469333-14.242133-0.8704-21.7344-3.618133-2.525867-0.930133-4.7616-2.6368-7.2448-3.618134-29.218133-11.554133-57.514667-29.44-90.5472-32.597333-2.372267-0.2304-4.846933 0.145067-7.2448 0l-2.133334-3.2256c-11.144533-0.1536-23.671467-2.176-34.082133 1.339733v1.885867c-21.7344 1.467733-43.2128 14.728533-56.046933 32.6912-6.9632 9.745067-9.344 22.894933-16.392534 32.503467-7.287467-53.4272 3.182933-105.198933 18.850134-156.808534 6.971733-22.9632 25.335467-58.717867 28.168533-80.4864 3.566933-27.332267-1.698133-62.062933-0.093867-90.641066 2.0992-37.4528 9.531733-92.7232 19.1488-129.348267 7.4752-28.458667 24.226133-84.736 58.8288-86.212267 20.096-0.861867 61.115733 22.229333 79.172267 33.3824 28.561067 17.646933 54.161067 40.064 80.6912 60.552534 11.306667 3.336533 19.421867-1.937067 28.5952-3.106134 61.934933-7.9104 122.496-10.564267 184.576-3.6096l54.3744 11.042134c7.2704-0.503467 20.164267-17.800533 27.3408-23.637334 25.5488-20.778667 71.355733-53.077333 101.205333-65.399466 27.741867-11.460267 44.3392-13.7472 65.314134 10.8544 24.3712 28.5952 38.519467 106.88 43.332266 144.9984 5.768533 45.713067-1.723733 94.848 3.746134 137.506133 2.935467 22.912 26.7008 69.051733 34.449066 95.940267 10.743467 37.2992 17.092267 75.648 19.968 114.3552l-7.389866 45.1072zM307.703467 148.898133c1.476267-5.6832-1.467733-5.973333-3.652267-9.019733-12.4416-17.373867-49.262933-54.6816-70.690133-56.328533-25.813333-1.979733-34.389333 37.0176-37.8112 56.439466-5.589333 31.684267-3.473067 63.744-3.746134 95.8464 6.212267 1.501867 7.202133-2.3808 10.862934-5.4272 17.339733-14.4384 32.0768-32.315733 50.858666-46.933333 16.213333-12.6208 35.720533-26.146133 54.186667-34.577067z m521.540266 86.9376v-67.003733c0-1.1264-2.944-17.169067-3.6864-21.666133-4.010667-24.021333-12.177067-70.016-44.637866-62.882134-15.965867 3.5072-50.688 36.778667-62.1568 50.116267-6.101333 7.0912-9.642667 11.52 0.4608 17.6896 22.306133 13.627733 44.970667 26.666667 64.8192 43.835733 11.895467 10.282667 22.306133 24.465067 34.338133 34.474667 3.669333 3.054933 4.642133 6.920533 10.862933 5.435733zM357.376 287.0272c-43.101867 6.7072-47.470933 53.0432-13.3632 77.294933 33.083733 23.5264 90.461867 19.4048 83.2-32.503466-1.527467-10.9312-20.215467-30.020267-29.994667-35.191467-6.468267-3.421867-33.629867-10.564267-39.842133-9.6z m278.801067 3.84c-17.339733 2.926933-41.437867 19.968-45.380267 37.922133-17.160533 78.088533 118.903467 54.186667 103.842133-14.481066-5.504-25.105067-37.521067-26.973867-58.461866-23.441067zM412.740267 435.029333c-12.535467-0.750933-25.719467 0.9984-38.1952 0.162134-6.4768-0.4352-11.451733-3.6608-17.792-3.933867-28.928-1.245867-58.197333 1.297067-87.159467 0.0768l-12.7232 12.672c4.471467 18.389333 6.016 31.982933 18.167467 47.232 21.597867 27.1104 58.231467 35.908267 90.794666 25.463467 33.5616-10.769067 53.051733-47.675733 46.907734-81.681067z m191.940266 0c-6.715733 66.4576 72.2176 111.488 126.6176 70.4768 21.12-15.9232 32.384-41.9328 28.817067-68.343466l-5.4272-5.435734c-38.954667 1.553067-80.785067-3.1232-119.3728-0.469333-9.813333 0.674133-19.549867 6.408533-30.634667 3.771733z" fill="#F7C17D" p-id="1770"></path><path d="M687.991467 543.6928l14.481066 5.418667c-5.137067 5.4528-16.708267 23.099733-17.5104 29.533866-0.375467 3.0208 2.414933 6.0416 2.2528 9.6256-0.136533 2.9184-3.3024 6.314667-2.986666 11.383467 1.28 20.266667 12.544 49.501867 25.429333 65.4336 26.274133 32.4864 84.616533 49.774933 123.0592 32.384 12.6976-5.742933 28.680533-11.2384 39.893333-18.048 17.058133-10.368 17.604267-21.947733 29.013334-36.189867 4.539733-5.674667 8.635733-9.3184 7.304533 1.8688-91.272533 167.876267-341.256533 209.28-512.366933 177.339734-87.8848-16.4096-197.384533-62.173867-255.5392-132.002134-4.181333-5.0176-10.077867-13.320533-10.794667-19.985066 12.885333 12.066133 15.522133 8.098133 29.1584 12.4928 8.704 2.798933 16.9216 14.574933 28.612267 18.474666 12.970667 4.317867 29.474133 3.456 42.504533 8.149334C312.098133 699.1104 367.274667 622.08 329.429333 543.6928c13.824 2.0992 27.7504-0.418133 39.842134-3.618133 32.213333-8.533333 37.870933-21.000533 61.661866-37.9392 39.415467-28.066133 96.725333-31.104 140.1344-9.915734 15.223467 7.432533 27.912533 22.8352 40.968534 31.470934 20.010667 13.2352 52.061867 23.381333 75.972266 20.010666z m-72.260267 50.875733c3.165867 47.0016-56.106667 48.7424-85.3504 25.250134-11.204267-9.002667-9.975467-16.7168-8.669867-30.523734 1.493333-5.213867 21.282133-9.770667 28.552534-14.907733 26.3168-18.5856 32.605867-49.3824-0.059734-64.938667-24.8576-11.835733-60.16-10.112-84.420266 2.176-1.9968 1.015467-12.032 6.8608-12.535467 7.381334-1.041067 1.092267-8.004267 17.3824-7.978667 19.234133 0.341333 25.4464 31.7696 41.898667 52.7872 48.7168 7.4496 23.611733-5.563733 32.3072-24.849066 40.7552-18.5856 8.149333-45.841067 10.274133-60.603734-6.007467-8.311467-9.1648-5.802667-29.115733-12.552533-30.916266-21.248-5.666133-15.863467 25.301333-8.576 37.563733 20.130133 33.8688 69.896533 31.069867 100.804267 14.7968 4.693333-2.474667 16.068267-13.525333 19.7888-12.424533 27.9808 31.377067 94.250667 36.5824 117.486933-2.414934 5.444267-9.1392 8.2944-39.850667-4.616533-37.341866l-9.1904 3.601066z" fill="#FAF0DC" p-id="1771"></path><path d="M865.467733 500.232533c40.106667 3.5072 67.208533 40.840533 65.194667 79.684267-1.237333 23.8848-10.752 44.996267-21.7344 65.194667 1.3312-11.1872-2.7648-7.543467-7.304533-1.8688-11.400533 14.250667-11.9552 25.8304-29.013334 36.189866-11.2128 6.8096-27.195733 12.305067-39.893333 18.048-38.4512 17.390933-96.785067 0.110933-123.0592-32.384-12.885333-15.9232-24.149333-45.166933-25.429333-65.4336-0.324267-5.0688 2.850133-8.465067 2.986666-11.383466 0.162133-3.584-2.628267-6.596267-2.2528-9.6256 0.802133-6.442667 12.381867-24.081067 17.5104-29.533867l-14.481066-5.418667c6.775467-0.955733 31.069867-7.688533 39.842133-10.862933l-14.429867 52.573867c-3.438933 25.4464 13.141333 63.428267 34.850134 77.312 26.9056 17.194667 85.3248 16.008533 109.9264-4.9664 3.182933-2.7136 3.5072-7.057067 5.521066-9.070934 2.858667-2.858667 6.9632-2.961067 8.209067-4.343466 4.2496-4.718933 19.473067-42.205867 19.029333-47.991467-9.7024-29.713067-13.7984-59.528533-40.123733-79.658667l-28.817067-16.443733c14.173867 0.861867 29.482667-1.2288 43.460267 0z" fill="#FAE5CF" p-id="1772"></path><path d="M162.824533 500.232533c4.778667-0.324267 9.685333 0.128 14.4896 0-13.166933 16.1536-40.977067 22.715733-49.032533 43.323734-2.670933 6.843733-8.516267 31.351467-9.045333 38.3488-0.5632 7.389867 4.855467 17.169067 3.882666 28.9536-1.595733 19.2512-13.303467 20.3008 1.7664 41.3952 12.0576 16.8704 19.968 12.279467 35.362134 18.961066 13.44 5.8368 24.823467 15.701333 40.669866 17.28 12.893867-1.928533 23.406933 4.9152 36.061867 3.626667 29.090133-2.952533 64.375467-27.229867 76.219733-54.186667 14.8736-33.834667 11.298133-71.210667-9.130666-101.486933 7.492267 2.756267 13.9008 3.1488 21.7344 3.618133 0.6144 1.595733 1.962667 3.370667 3.618133 3.618134 37.845333 78.3872-17.3312 155.4176-98.926933 165.879466-13.0304-4.693333-29.533867-3.831467-42.504534-8.149333-11.690667-3.8912-19.908267-15.6672-28.612266-18.474667-13.636267-4.394667-16.273067-0.426667-29.1584-12.4928-9.6768-9.0624-18.3808-26.888533-23.594667-39.7824-8.7296-21.5808-13.115733-42.3168-16.238933-65.245866 7.048533-9.608533 9.429333-22.7584 16.392533-32.503467 12.834133-17.962667 34.312533-31.223467 56.046933-32.6912z" fill="#F9E8D3" p-id="1773"></path><path d="M865.467733 500.232533c-13.9776-1.220267-29.2864 0.8704-43.460266 0l28.817066 16.443734c26.3168 20.130133 30.4128 49.9456 40.123734 79.658666 0.443733 5.7856-14.7712 43.264-19.029334 47.991467-1.245867 1.3824-5.358933 1.476267-8.209066 4.343467-2.013867 2.0224-2.338133 6.357333-5.521067 9.070933-24.6016 20.974933-83.029333 22.161067-109.9264 4.9664-21.7088-13.8752-38.280533-51.857067-34.850133-77.312l14.429866-52.573867c33.5616-12.151467 64.955733-34.0992 103.0656-36.3776l34.56 3.780267z m-80.802133 26.043734c-11.946667 2.039467-28.356267 8.977067-34.6368 19.694933-3.387733 5.777067-13.4656 33.7664-14.472533 40.149333-1.3824 8.763733 6.724267 32.964267 12.296533 40.7808 9.489067 13.320533 31.086933 24.072533 47.1296 25.4976 8.3456 0.7424 14.9504-4.130133 23.492267-1.851733 20.872533-4.565333 29.627733-22.033067 42.922666-36.667733 3.1232-25.838933 4.949333-44.791467-12.3904-66.4064-17.0496-21.256533-37.6832-25.745067-64.341333-21.1968z" fill="#F9D4B9" p-id="1774"></path><path d="M604.680533 435.029333c11.0848 2.6368 20.821333-3.0976 30.634667-3.771733 38.5792-2.653867 80.418133 2.0224 119.3728 0.469333l5.4272 5.435734c3.566933 26.410667-7.697067 52.420267-28.817067 68.343466-54.391467 41.0112-133.333333-4.010667-126.6176-70.4768z m20.386134 11.332267c-20.164267 10.487467-6.237867 39.739733 13.482666 35.2512 17.988267-4.096 24.618667-25.540267 7.338667-35.2512h-20.821333z" fill="#53332A" p-id="1775"></path><path d="M412.740267 435.029333c6.144 33.9968-13.346133 70.912-46.907734 81.681067-32.5632 10.4448-69.188267 1.646933-90.794666-25.463467-12.16-15.2576-13.696-28.8512-18.167467-47.232l12.7232-12.672c28.962133 1.220267 58.24-1.322667 87.159467-0.0768 6.340267 0.273067 11.323733 3.5072 17.792 3.933867 12.475733 0.836267 25.659733-0.913067 38.1952-0.162133z m-135.4496 11.246934c-16.878933 11.904-4.983467 29.7984 10.496 36.0704 22.903467-1.024 29.934933-23.978667 10.410666-35.9936l-20.906666-0.0768z" fill="#533229" p-id="1776"></path><path d="M307.703467 148.898133c-18.466133 8.4224-37.9648 21.947733-54.186667 34.577067-18.781867 14.6176-33.518933 32.494933-50.858667 46.933333-3.6608 3.0464-4.650667 6.929067-10.862933 5.4272 0.273067-32.1024-1.8432-64.162133 3.746133-95.8464 3.421867-19.413333 11.997867-58.410667 37.8112-56.439466 21.435733 1.6384 58.257067 38.954667 70.690134 56.328533 2.184533 3.0464 5.128533 3.336533 3.652266 9.019733z" fill="#FAC6B8" p-id="1777"></path><path d="M829.243733 235.835733c-6.2208 1.4848-7.202133-2.3808-10.862933-5.435733-12.032-10.0096-22.442667-24.192-34.338133-34.474667-19.857067-17.169067-42.513067-30.208-64.8192-43.835733-10.103467-6.1696-6.562133-10.5984-0.4608-17.6896 11.4688-13.3376 46.190933-46.609067 62.1568-50.116267 32.469333-7.133867 40.635733 38.852267 44.637866 62.882134 0.750933 4.488533 3.6864 20.5312 3.6864 21.666133v67.003733z" fill="#FAC8BB" p-id="1778"></path><path d="M296.832 532.829867c-10.581333-1.629867-8.1664 4.061867-5.649067 11.0848 5.085867 14.1568 16.7168 27.784533 16.802134 45.047466 0.042667 7.714133-4.864 15.146667-6.792534 22.4768-3.0208 11.4944-1.7664 18.517333-9.890133 29.952-35.328 49.672533-96.699733 36.445867-140.663467 6.843734-21.6576-14.583467-19.1488-67.3792-11.537066-90.231467 3.6352-10.922667 12.8768-17.860267 17.2288-28.040533l49.954133-29.730134c33.032533 3.157333 61.329067 21.0432 90.5472 32.597334z m-36.846933-2.978134c-35.089067-17.152-76.177067-6.946133-98.875734 24.797867-16.238933 22.7072-13.038933 73.591467 12.6208 88.610133 2.935467 1.723733 27.904 11.374933 31.325867 12.1344 26.820267 5.9648 55.185067-7.8336 71.9616-28.305066l9.0624-45.320534c-5.9392-20.0448-14.165333-35.0208-26.077867-51.9168z" fill="#FAD6BC" p-id="1779"></path><path d="M199.04 500.232533c2.389333 0.145067 4.872533-0.2304 7.2448 0l-49.954133 29.730134c-4.352 10.180267-13.5936 17.117867-17.2288 28.040533-7.6032 22.852267-10.120533 75.648 11.537066 90.231467 43.963733 29.602133 105.335467 42.837333 140.663467-6.843734 8.123733-11.426133 6.869333-18.4576 9.890133-29.952 1.928533-7.330133 6.8352-14.7712 6.792534-22.4768-0.093867-17.271467-11.7248-30.890667-16.802134-45.047466-2.517333-7.0144-4.932267-12.714667 5.649067-11.0848 2.4832 0.981333 4.718933 2.696533 7.2448 3.618133 20.4288 30.276267 24.004267 67.652267 9.130667 101.486933-11.844267 26.9568-47.1296 51.234133-76.219734 54.186667-12.654933 1.28-23.159467-5.5552-36.061866-3.626667-15.854933-1.570133-27.229867-11.4432-40.669867-17.28-15.402667-6.6816-23.313067-2.090667-35.362133-18.961066-15.069867-21.0944-3.362133-22.144-1.7664-41.3952 0.9728-11.784533-4.445867-21.572267-3.882667-28.9536 0.529067-6.997333 6.365867-31.505067 9.045333-38.3488 8.055467-20.608 35.8656-27.170133 49.032534-43.323734 7.099733-0.187733 14.6688-0.426667 21.7344 0z" fill="#FBE2CA" p-id="1780"></path><path d="M357.376 287.0272c6.2208-0.964267 33.373867 6.178133 39.842133 9.6 9.7792 5.1712 28.458667 24.2688 29.994667 35.191467 7.261867 51.908267-50.116267 56.029867-83.2 32.503466-34.107733-24.251733-29.738667-70.587733 13.3632-77.294933zM636.177067 290.8672c20.9408-3.5328 52.957867-1.664 58.461866 23.441067 15.061333 68.667733-121.002667 92.5696-103.842133 14.481066 3.9424-17.954133 28.040533-35.003733 45.380267-37.922133z" fill="#F8EFDD" p-id="1781"></path><path d="M369.271467 540.074667c-12.091733 3.2-26.018133 5.725867-39.842134 3.618133-1.664-0.256-3.003733-2.0224-3.618133-3.618133 14.353067 0.861867 29.073067-0.6144 43.460267 0z" fill="#FBE2CA" p-id="1782"></path><path d="M199.04 500.232533c-7.057067-0.426667-14.634667-0.187733-21.7344 0-4.804267 0.128-9.710933-0.324267-14.4896 0V498.346667c10.410667-3.515733 22.946133-1.493333 34.082133-1.339734l2.133334 3.2256z" fill="#FAD6BC" p-id="1783"></path><path d="M615.7312 594.568533l9.1904-3.601066c12.910933-2.517333 10.0608 28.202667 4.616533 37.341866-23.236267 38.997333-89.506133 33.792-117.486933 2.414934-3.720533-1.1008-15.095467 9.9584-19.7888 12.424533-30.8992 16.273067-80.6656 19.072-100.804267-14.7968-7.287467-12.253867-12.672-43.229867 8.576-37.563733 6.749867 1.800533 4.2496 21.751467 12.552534 30.916266 14.762667 16.2816 42.026667 14.1568 60.603733 6.007467 19.285333-8.456533 32.290133-17.143467 24.849067-40.7552-21.0176-6.818133-52.445867-23.2704-52.7872-48.7168-0.0256-1.851733 6.9376-18.141867 7.978666-19.234133 0.503467-0.529067 10.538667-6.3744 12.535467-7.381334 24.2688-12.296533 59.5712-14.011733 84.420267-2.176 32.6656 15.556267 26.376533 46.353067 0.059733 64.938667-7.2704 5.137067-27.0592 9.693867-28.552533 14.907733-1.3056 13.815467-2.5344 21.521067 8.669866 30.523734 29.243733 23.492267 88.516267 21.751467 85.3504-25.250134z" fill="#523129" p-id="1784"></path><path d="M784.6656 526.276267c26.658133-4.548267 47.291733-0.059733 64.341333 21.1968 17.339733 21.6064 15.5136 40.567467 12.3904 66.4064-13.294933 14.634667-22.058667 32.1024-42.922666 36.667733-8.533333-2.2784-15.138133 2.594133-23.492267 1.851733-16.042667-1.425067-37.640533-12.177067-47.1296-25.4976-5.572267-7.816533-13.6704-32.017067-12.296533-40.7808 1.006933-6.382933 11.0848-34.372267 14.472533-40.149333 6.280533-10.709333 22.690133-17.655467 34.6368-19.694933z m51.165867 89.224533c8.900267-20.2752 9.233067-33.4336-2.261334-52.590933-17.792-29.636267-68.9152-14.856533-73.130666 15.189333-6.775467 48.349867 40.379733 61.576533 75.392 37.393067z" fill="#F9C9AC" p-id="1785"></path><path d="M625.066667 446.3616h20.821333c17.288533 9.710933 10.6496 31.1552-7.338667 35.2512-19.720533 4.488533-33.6384-24.763733-13.482666-35.2512z" fill="#F2ECDF" p-id="1786"></path><path d="M277.290667 446.276267l20.906666 0.0768c19.524267 12.014933 12.4928 34.9696-10.410666 35.9936-15.479467-6.272-27.374933-24.1664-10.496-36.0704z" fill="#F6EEE2" p-id="1787"></path><path d="M259.985067 529.851733c11.921067 16.896 20.1472 31.872 26.077866 51.9168l-9.0624 45.320534c-16.776533 20.471467-45.1328 34.269867-71.9616 28.305066-3.421867-0.759467-28.3904-10.4192-31.325866-12.1344-25.659733-15.018667-28.859733-65.8944-12.6208-88.610133 22.698667-31.744 63.786667-41.949867 98.875733-24.797867zM219.818667 544.256c-4.232533 0.418133-16.64 3.2512-20.957867 4.6848-29.730133 9.838933-33.442133 58.1376-6.954667 76.142933 10.496 7.133867 35.831467 10.461867 46.958934 3.703467 9.975467-6.050133 25.386667-28.0832 25.378133-39.816533 0-5.9392-9.975467-27.818667-14.370133-32.725334-5.410133-6.0416-21.9648-12.782933-30.062934-11.989333z" fill="#FACAAC" p-id="1788"></path><path d="M835.831467 615.5008c-35.012267 24.183467-82.167467 10.9568-75.392-37.393067 4.215467-30.0544 55.338667-44.834133 73.130666-15.189333 11.502933 19.157333 11.1616 32.315733 2.261334 52.590933z" fill="#F9BD9C" p-id="1789"></path><path d="M219.818667 544.256c8.098133-0.7936 24.644267 5.9392 30.062933 11.989333 4.394667 4.906667 14.370133 26.794667 14.370133 32.725334 0 11.733333-15.4112 33.7664-25.378133 39.816533-11.136 6.7584-36.462933 3.4304-46.958933-3.703467-26.487467-18.005333-22.775467-66.304 6.954666-76.142933 4.3264-1.4336 16.733867-4.266667 20.957867-4.6848z" fill="#FBBC9B" p-id="1790"></path></svg>